<svg width="25" height="25" viewBox="0 0 25 25" fill="none" xmlns="http://www.w3.org/2000/svg">
<path fill-rule="evenodd" clip-rule="evenodd" d="M0 12.5C0 5.59625 5.59625 0 12.5 0C14.4937 0 16.3813 0.4675 18.0562 1.3C18.2045 1.3723 18.337 1.47322 18.446 1.59695C18.5551 1.72068 18.6386 1.86477 18.6917 2.02091C18.7448 2.17705 18.7665 2.34216 18.7555 2.50673C18.7445 2.67129 18.7011 2.83206 18.6277 2.97976C18.5543 3.12746 18.4524 3.25917 18.3279 3.36731C18.2033 3.47545 18.0586 3.55787 17.9021 3.60983C17.7456 3.6618 17.5803 3.68227 17.4158 3.67007C17.2513 3.65787 17.0909 3.61324 16.9438 3.53875C14.9532 2.55151 12.6906 2.25532 10.513 2.69693C8.33541 3.13855 6.36692 4.29281 4.91826 5.97753C3.4696 7.66224 2.62328 9.78144 2.51289 12.0006C2.4025 14.2198 3.03433 16.4125 4.30865 18.2327C5.58296 20.0528 7.42718 21.3967 9.55019 22.0523C11.6732 22.7078 13.9541 22.6377 16.0327 21.8528C18.1114 21.068 19.8695 19.6132 21.0295 17.7182C22.1895 15.8231 22.6854 13.5957 22.4388 11.3875C22.4207 11.2243 22.4349 11.0592 22.4807 10.9015C22.5265 10.7439 22.6028 10.5968 22.7054 10.4686C22.9127 10.2098 23.2142 10.044 23.5437 10.0075C23.8733 9.97103 24.2038 10.067 24.4626 10.2742C24.5907 10.3768 24.6974 10.5036 24.7766 10.6475C24.8557 10.7913 24.9057 10.9493 24.9237 11.1125C24.9737 11.5688 25 12.0312 25 12.5C25 19.4037 19.4037 25 12.5 25C5.59625 25 0 19.4037 0 12.5ZM24.6338 2.86625C24.8681 3.10066 24.9997 3.41854 24.9997 3.75C24.9997 4.08146 24.8681 4.39934 24.6338 4.63375L13.3837 15.8837C13.1493 16.1181 12.8315 16.2497 12.5 16.2497C12.1685 16.2497 11.8507 16.1181 11.6163 15.8837L7.86625 12.1337C7.74686 12.0184 7.65163 11.8805 7.58612 11.728C7.52061 11.5755 7.48613 11.4115 7.48469 11.2455C7.48324 11.0795 7.51487 10.9149 7.57772 10.7613C7.64057 10.6077 7.73339 10.4681 7.85076 10.3508C7.96812 10.2334 8.10769 10.1406 8.26131 10.0777C8.41493 10.0149 8.57953 9.98324 8.7455 9.98469C8.91148 9.98613 9.0755 10.0206 9.22801 10.0861C9.38051 10.1516 9.51844 10.2469 9.63375 10.3663L12.5 13.2325L22.8662 2.86625C23.1007 2.63191 23.4185 2.50027 23.75 2.50027C24.0815 2.50027 24.3993 2.63191 24.6338 2.86625Z" fill="#31D3C6"/>
</svg>
